<svg width="25" height="25" viewBox="0 0 25 25" fill="none" xmlns="http://www.w3.org/2000/svg">
<path d="M12.2613 0.419128C5.72595 0.419128 0.400391 5.74468 0.400391 12.2801C0.400391 18.8154 5.72595 24.141 12.2613 24.141C18.7967 24.141 24.1222 18.8154 24.1222 12.2801C24.1222 5.74468 18.7967 0.419128 12.2613 0.419128ZM17.0057 13.1696H13.1509V17.0244C13.1509 17.5107 12.7476 17.914 12.2613 17.914C11.775 17.914 11.3717 17.5107 11.3717 17.0244V13.1696H7.51695C7.03065 13.1696 6.62738 12.7664 6.62738 12.2801C6.62738 11.7938 7.03065 11.3905 7.51695 11.3905H11.3717V7.53568C11.3717 7.04939 11.775 6.64611 12.2613 6.64611C12.7476 6.64611 13.1509 7.04939 13.1509 7.53568V11.3905H17.0057C17.492 11.3905 17.8953 11.7938 17.8953 12.2801C17.8953 12.7664 17.492 13.1696 17.0057 13.1696Z" fill="white"/>
</svg>
