<svg width="29" height="29" viewBox="0 0 29 29" fill="none" xmlns="http://www.w3.org/2000/svg">
<path d="M14.2191 0.326805C6.45138 0.326805 0.121582 6.65661 0.121582 14.4244C0.121582 22.1921 6.45138 28.5219 14.2191 28.5219C21.9869 28.5219 28.3167 22.1921 28.3167 14.4244C28.3167 6.65661 21.9869 0.326805 14.2191 0.326805ZM19.8582 15.4817H15.2765V20.0634C15.2765 20.6414 14.7971 21.1207 14.2191 21.1207C13.6411 21.1207 13.1618 20.6414 13.1618 20.0634V15.4817H8.58012C8.00212 15.4817 7.5228 15.0024 7.5228 14.4244C7.5228 13.8464 8.00212 13.367 8.58012 13.367H13.1618V8.78534C13.1618 8.20734 13.6411 7.72802 14.2191 7.72802C14.7971 7.72802 15.2765 8.20734 15.2765 8.78534V13.367H19.8582C20.4362 13.367 20.9155 13.8464 20.9155 14.4244C20.9155 15.0024 20.4362 15.4817 19.8582 15.4817Z" fill="white"/>
</svg>
