<svg width="17" height="17" viewBox="0 0 17 17" fill="none" xmlns="http://www.w3.org/2000/svg">
<path d="M8.23998 0.63295C3.73325 0.63295 0.060791 4.30541 0.060791 8.81214C0.060791 13.3189 3.73325 16.9913 8.23998 16.9913C12.7467 16.9913 16.4192 13.3189 16.4192 8.81214C16.4192 4.30541 12.7467 0.63295 8.23998 0.63295ZM11.5117 9.42558H8.85342V12.0838C8.85342 12.4192 8.57533 12.6973 8.23998 12.6973C7.90463 12.6973 7.62654 12.4192 7.62654 12.0838V9.42558H4.9683C4.63296 9.42558 4.35487 9.14749 4.35487 8.81214C4.35487 8.47679 4.63296 8.1987 4.9683 8.1987H7.62654V5.54046C7.62654 5.20512 7.90463 4.92702 8.23998 4.92702C8.57533 4.92702 8.85342 5.20512 8.85342 5.54046V8.1987H11.5117C11.847 8.1987 12.1251 8.47679 12.1251 8.81214C12.1251 9.14749 11.847 9.42558 11.5117 9.42558Z" fill="white"/>
</svg>
