<svg width="18" height="17" viewBox="0 0 18 17" fill="none" xmlns="http://www.w3.org/2000/svg">
<path d="M8.8756 0.63295C4.36887 0.63295 0.696411 4.30541 0.696411 8.81214C0.696411 13.3189 4.36887 16.9913 8.8756 16.9913C13.3823 16.9913 17.0548 13.3189 17.0548 8.81214C17.0548 4.30541 13.3823 0.63295 8.8756 0.63295ZM12.1473 9.42558H9.48904V12.0838C9.48904 12.4192 9.21095 12.6973 8.8756 12.6973C8.54025 12.6973 8.26216 12.4192 8.26216 12.0838V9.42558H5.60392C5.26858 9.42558 4.99049 9.14749 4.99049 8.81214C4.99049 8.47679 5.26858 8.1987 5.60392 8.1987H8.26216V5.54046C8.26216 5.20512 8.54025 4.92702 8.8756 4.92702C9.21095 4.92702 9.48904 5.20512 9.48904 5.54046V8.1987H12.1473C12.4826 8.1987 12.7607 8.47679 12.7607 8.81214C12.7607 9.14749 12.4826 9.42558 12.1473 9.42558Z" fill="white"/>
</svg>
