<svg width="17" height="17" viewBox="0 0 17 17" fill="none" xmlns="http://www.w3.org/2000/svg">
<path d="M8.65807 0.63295C4.15134 0.63295 0.478882 4.30541 0.478882 8.81214C0.478882 13.3189 4.15134 16.9913 8.65807 16.9913C13.1648 16.9913 16.8373 13.3189 16.8373 8.81214C16.8373 4.30541 13.1648 0.63295 8.65807 0.63295ZM11.9297 9.42558H9.27151V12.0838C9.27151 12.4192 8.99342 12.6973 8.65807 12.6973C8.32272 12.6973 8.04463 12.4192 8.04463 12.0838V9.42558H5.3864C5.05105 9.42558 4.77296 9.14749 4.77296 8.81214C4.77296 8.47679 5.05105 8.1987 5.3864 8.1987H8.04463V5.54046C8.04463 5.20512 8.32272 4.92702 8.65807 4.92702C8.99342 4.92702 9.27151 5.20512 9.27151 5.54046V8.1987H11.9297C12.2651 8.1987 12.5432 8.47679 12.5432 8.81214C12.5432 9.14749 12.2651 9.42558 11.9297 9.42558Z" fill="white"/>
</svg>
