<svg width="18" height="17" viewBox="0 0 18 17" fill="none" xmlns="http://www.w3.org/2000/svg">
<path d="M9.05785 0.63295C4.55112 0.63295 0.878662 4.30541 0.878662 8.81214C0.878662 13.3189 4.55112 16.9913 9.05785 16.9913C13.5646 16.9913 17.237 13.3189 17.237 8.81214C17.237 4.30541 13.5646 0.63295 9.05785 0.63295ZM12.3295 9.42558H9.67129V12.0838C9.67129 12.4192 9.3932 12.6973 9.05785 12.6973C8.7225 12.6973 8.44441 12.4192 8.44441 12.0838V9.42558H5.78618C5.45083 9.42558 5.17274 9.14749 5.17274 8.81214C5.17274 8.47679 5.45083 8.1987 5.78618 8.1987H8.44441V5.54046C8.44441 5.20512 8.7225 4.92702 9.05785 4.92702C9.3932 4.92702 9.67129 5.20512 9.67129 5.54046V8.1987H12.3295C12.6649 8.1987 12.943 8.47679 12.943 8.81214C12.943 9.14749 12.6649 9.42558 12.3295 9.42558Z" fill="white"/>
</svg>
