<svg width="78" height="40" viewBox="0 0 78 40" fill="none" xmlns="http://www.w3.org/2000/svg">
<mask id="mask0_4_7350" style="mask-type:luminance" maskUnits="userSpaceOnUse" x="0" y="0" width="78" height="40">
<path d="M0 0.40625H77.6657V39.7812H0V0.40625Z" fill="white"/>
</mask>
<g mask="url(#mask0_4_7350)">
<mask id="mask1_4_7350" style="mask-type:luminance" maskUnits="userSpaceOnUse" x="0" y="0" width="78" height="40">
<path d="M20.1211 0.40625H57.0176C68.1321 0.40625 77.1387 9.15797 77.1387 19.9502C77.1387 30.7502 68.1321 39.5019 57.0176 39.5019H20.1211C9.00657 39.5019 0 30.7502 0 19.9502C0 9.15797 9.00657 0.40625 20.1211 0.40625Z" fill="white"/>
</mask>
<g mask="url(#mask1_4_7350)">
<path d="M0 0.40625H77.0988V39.2459H0V0.40625Z" fill="#5271FF"/>
</g>
</g>
<mask id="mask2_4_7350" style="mask-type:luminance" maskUnits="userSpaceOnUse" x="42" y="13" width="13" height="13">
<path d="M42.917 13.9607H54.0954V25.8779H42.917V13.9607Z" fill="white"/>
</mask>
<g mask="url(#mask2_4_7350)">
<path fill-rule="evenodd" clip-rule="evenodd" d="M44.3223 18.9339L50.5422 15.3882L53.3288 20.5166C54.0075 23.3253 50.3187 24.3571 47.3484 24.1865L44.3223 18.9339Z" fill="white"/>
</g>
<mask id="mask3_4_7350" style="mask-type:luminance" maskUnits="userSpaceOnUse" x="38" y="21" width="16" height="13">
<path d="M38.8291 21.9053H53.1374V33.7372H38.8291V21.9053Z" fill="white"/>
</mask>
<g mask="url(#mask3_4_7350)">
<path fill-rule="evenodd" clip-rule="evenodd" d="M42.9094 22.6034L39.6357 28.1198L42.9094 33.7215L42.9893 31.4793H45.9755C47.0694 31.5724 48.4826 30.8896 49.0096 29.8965L52.8502 23.1853C51.5806 24.3801 49.9518 24.6905 48.0834 24.6905H43.0292L42.9094 22.6034Z" fill="white"/>
</g>
<path fill-rule="evenodd" clip-rule="evenodd" d="M35.595 15.7993L29.3271 12.3235L32.6727 7.50535C34.9083 5.58121 37.647 8.16483 38.9326 10.7174L35.595 15.7993Z" fill="white"/>
<path fill-rule="evenodd" clip-rule="evenodd" d="M39.6354 15.2019L46.2785 15.2562L49.8157 9.80186L47.7237 10.826L46.2705 8.32772C45.8234 7.37342 44.5139 6.51996 43.3562 6.56652L35.3477 6.62083C37.0563 7.0941 38.1263 8.30445 39.0365 9.87169L41.4878 14.0846L39.6354 15.2019Z" fill="white"/>
<mask id="mask4_4_7350" style="mask-type:luminance" maskUnits="userSpaceOnUse" x="23" y="13" width="14" height="13">
<path d="M23.6104 13.9607H36.7849V25.8779H23.6104V13.9607Z" fill="white"/>
</mask>
<g mask="url(#mask4_4_7350)">
<path fill-rule="evenodd" clip-rule="evenodd" d="M24.5287 15.5123L26.4689 16.9321L24.6404 20.2063C23.7302 21.7115 25.3032 23.1856 26.3012 23.6977C27.2833 24.202 28.8164 24.264 30.2456 24.2408L32.8166 20.3149L34.7569 21.3002L31.3874 15.458L24.5287 15.5123Z" fill="white"/>
</g>
<path fill-rule="evenodd" clip-rule="evenodd" d="M24.8164 23.1002L28.9843 30.3002C29.8227 31.3011 31.4037 31.5416 33.0405 31.5028H37.44V24.683L29.0961 24.6287C27.8026 24.6985 26.1099 24.4425 24.8164 23.1002Z" fill="white"/>
</svg>
