<svg width="65" height="34" viewBox="0 0 65 34" fill="none" xmlns="http://www.w3.org/2000/svg">
<mask id="mask0_4_5079" style="mask-type:luminance" maskUnits="userSpaceOnUse" x="0" y="0" width="65" height="34">
<path d="M0 0H64.3553V33.577H0V0Z" fill="white"/>
</mask>
<g mask="url(#mask0_4_5079)">
<mask id="mask1_4_5079" style="mask-type:luminance" maskUnits="userSpaceOnUse" x="0" y="0" width="64" height="34">
<path d="M16.6727 0H47.246C56.4557 0 63.9187 7.46302 63.9187 16.6661C63.9187 25.8758 56.4557 33.3388 47.246 33.3388H16.6727C7.46302 33.3388 0 25.8758 0 16.6661C0 7.46302 7.46302 0 16.6727 0Z" fill="white"/>
</mask>
<g mask="url(#mask1_4_5079)">
<path d="M0 0H63.8856V33.1205H0V0Z" fill="#5271FF"/>
</g>
</g>
<mask id="mask2_4_5079" style="mask-type:luminance" maskUnits="userSpaceOnUse" x="35" y="11" width="10" height="11">
<path d="M35.562 11.5586H44.8246V21.721H35.562V11.5586Z" fill="white"/>
</mask>
<g mask="url(#mask2_4_5079)">
<path fill-rule="evenodd" clip-rule="evenodd" d="M36.7266 15.7996L41.8805 12.776L44.1896 17.1493C44.752 19.5443 41.6953 20.4243 39.2341 20.2787L36.7266 15.7996Z" fill="white"/>
</g>
<mask id="mask3_4_5079" style="mask-type:luminance" maskUnits="userSpaceOnUse" x="32" y="18" width="13" height="11">
<path d="M32.1743 18.3334H44.0305V28.423H32.1743V18.3334Z" fill="white"/>
</mask>
<g mask="url(#mask3_4_5079)">
<path fill-rule="evenodd" clip-rule="evenodd" d="M35.5549 18.9288L32.8423 23.6329L35.5549 28.4098L35.6211 26.4977H38.0955C39.0019 26.5771 40.173 25.9949 40.6097 25.148L43.792 19.425C42.7401 20.4439 41.3904 20.7086 39.8422 20.7086H35.6542L35.5549 18.9288Z" fill="white"/>
</g>
<path fill-rule="evenodd" clip-rule="evenodd" d="M29.495 13.1264L24.3013 10.1624L27.0734 6.05377C28.926 4.41296 31.1953 6.61614 32.2605 8.79286L29.495 13.1264Z" fill="white"/>
<path fill-rule="evenodd" clip-rule="evenodd" d="M32.8424 12.617L38.3471 12.6634L41.278 8.0122L39.5446 8.88553L38.3405 6.75513C37.9699 5.94134 36.8849 5.21356 35.9256 5.25326L29.2896 5.29957C30.7054 5.70316 31.592 6.73528 32.3462 8.07174L34.3774 11.6643L32.8424 12.617Z" fill="white"/>
<mask id="mask4_4_5079" style="mask-type:luminance" maskUnits="userSpaceOnUse" x="19" y="11" width="12" height="11">
<path d="M19.564 11.5586H30.4806V21.721H19.564V11.5586Z" fill="white"/>
</mask>
<g mask="url(#mask4_4_5079)">
<path fill-rule="evenodd" clip-rule="evenodd" d="M20.3247 12.8819L21.9324 14.0926L20.4173 16.8847C19.6631 18.1682 20.9665 19.4253 21.7935 19.8619C22.6073 20.292 23.8776 20.3449 25.0619 20.3251L27.1923 16.9773L28.8 17.8175L26.008 12.8356L20.3247 12.8819Z" fill="white"/>
</g>
<path fill-rule="evenodd" clip-rule="evenodd" d="M20.563 19.3523L24.0166 25.4921C24.7113 26.3456 26.0213 26.5507 27.3776 26.5176H31.0231V20.702L24.1092 20.6557C23.0374 20.7152 21.6348 20.4969 20.563 19.3523Z" fill="white"/>
</svg>
