<svg width="51" height="28" viewBox="0 0 51 28" fill="none" xmlns="http://www.w3.org/2000/svg">
<mask id="mask0_4_3010" style="mask-type:luminance" maskUnits="userSpaceOnUse" x="0" y="0" width="51" height="28">
<path d="M0.491211 0.776398H50.8466V27.049H0.491211V0.776398Z" fill="white"/>
</mask>
<g mask="url(#mask0_4_3010)">
<mask id="mask1_4_3010" style="mask-type:luminance" maskUnits="userSpaceOnUse" x="0" y="0" width="51" height="27">
<path d="M13.5369 0.776398H37.4592C44.6654 0.776398 50.5049 6.6159 50.5049 13.8169C50.5049 21.0231 44.6654 26.8626 37.4592 26.8626H13.5369C6.33071 26.8626 0.491211 21.0231 0.491211 13.8169C0.491211 6.6159 6.33071 0.776398 13.5369 0.776398Z" fill="white"/>
</mask>
<g mask="url(#mask1_4_3010)">
<path d="M0.491211 0.776398H50.479V26.6918H0.491211V0.776398Z" fill="#5271FF"/>
</g>
</g>
<mask id="mask2_4_3010" style="mask-type:luminance" maskUnits="userSpaceOnUse" x="28" y="9" width="8" height="9">
<path d="M28.3169 9.82045H35.5645V17.7721H28.3169V9.82045Z" fill="white"/>
</mask>
<g mask="url(#mask2_4_3010)">
<path fill-rule="evenodd" clip-rule="evenodd" d="M29.228 13.1389L33.2608 10.773L35.0675 14.1949C35.5076 16.069 33.1159 16.7575 31.1901 16.6436L29.228 13.1389Z" fill="white"/>
</g>
<mask id="mask3_4_3010" style="mask-type:luminance" maskUnits="userSpaceOnUse" x="25" y="15" width="10" height="9">
<path d="M25.6665 15.1215H34.9434V23.0162H25.6665V15.1215Z" fill="white"/>
</mask>
<g mask="url(#mask3_4_3010)">
<path fill-rule="evenodd" clip-rule="evenodd" d="M28.312 15.5874L26.1895 19.2681L28.312 23.0058L28.3637 21.5097H30.2999C31.0091 21.5718 31.9254 21.1163 32.2671 20.4536L34.7572 15.9756C33.934 16.7729 32.878 16.9799 31.6666 16.9799H28.3896L28.312 15.5874Z" fill="white"/>
</g>
<path fill-rule="evenodd" clip-rule="evenodd" d="M23.5697 11.0473L19.5059 8.72804L21.675 5.51321C23.1245 4.22935 24.9002 5.95324 25.7336 7.65643L23.5697 11.0473Z" fill="white"/>
<path fill-rule="evenodd" clip-rule="evenodd" d="M26.1892 10.6487L30.4963 10.6849L32.7897 7.04557L31.4333 7.72892L30.4911 6.06197C30.2012 5.42521 29.3522 4.85576 28.6016 4.88682L23.4092 4.92306C24.517 5.23885 25.2107 6.04644 25.8009 7.09216L27.3902 9.9032L26.1892 10.6487Z" fill="white"/>
<mask id="mask4_4_3010" style="mask-type:luminance" maskUnits="userSpaceOnUse" x="15" y="9" width="10" height="9">
<path d="M15.7993 9.82045H24.3411V17.7721H15.7993V9.82045Z" fill="white"/>
</mask>
<g mask="url(#mask4_4_3010)">
<path fill-rule="evenodd" clip-rule="evenodd" d="M16.3947 10.8558L17.6527 11.8032L16.4672 13.9879C15.877 14.9922 16.8969 15.9758 17.544 16.3174C18.1807 16.6539 19.1747 16.6954 20.1014 16.6798L21.7683 14.0603L23.0263 14.7178L20.8417 10.8196L16.3947 10.8558Z" fill="white"/>
</g>
<path fill-rule="evenodd" clip-rule="evenodd" d="M16.5811 15.9188L19.2834 20.7229C19.8269 21.3907 20.852 21.5512 21.9132 21.5253H24.7657V16.9748L19.3559 16.9386C18.5172 16.9852 17.4197 16.8144 16.5811 15.9188Z" fill="white"/>
</svg>
