<svg width="130" height="67" viewBox="0 0 130 67" fill="none" xmlns="http://www.w3.org/2000/svg">
<mask id="mask0_4_6557" style="mask-type:luminance" maskUnits="userSpaceOnUse" x="0" y="0" width="130" height="67">
<path d="M0.0673828 0.399048H129.772V66.1566H0.0673828V0.399048Z" fill="white"/>
</mask>
<g mask="url(#mask0_4_6557)">
<mask id="mask1_4_6557" style="mask-type:luminance" maskUnits="userSpaceOnUse" x="0" y="0" width="129" height="66">
<path d="M33.6702 0.399048H95.2888C113.85 0.399048 128.892 15.0147 128.892 33.0381C128.892 51.0745 113.85 65.6902 95.2888 65.6902H33.6702C15.1087 65.6902 0.0673828 51.0745 0.0673828 33.0381C0.0673828 15.0147 15.1087 0.399048 33.6702 0.399048Z" fill="white"/>
</mask>
<g mask="url(#mask1_4_6557)">
<path d="M0.0673828 0.399048H128.825V65.2626H0.0673828V0.399048Z" fill="#5271FF"/>
</g>
</g>
<mask id="mask2_4_6557" style="mask-type:luminance" maskUnits="userSpaceOnUse" x="71" y="23" width="20" height="20">
<path d="M71.7402 23.0353H90.4085V42.9375H71.7402V23.0353Z" fill="white"/>
</mask>
<g mask="url(#mask2_4_6557)">
<path fill-rule="evenodd" clip-rule="evenodd" d="M74.0874 31.3406L84.475 25.4192L89.1287 33.9839C90.2621 38.6744 84.1016 40.3977 79.1412 40.1126L74.0874 31.3406Z" fill="white"/>
</g>
<mask id="mask3_4_6557" style="mask-type:luminance" maskUnits="userSpaceOnUse" x="64" y="36" width="25" height="21">
<path d="M64.9131 36.3031H88.8084V56.0628H64.9131V36.3031Z" fill="white"/>
</mask>
<g mask="url(#mask3_4_6557)">
<path fill-rule="evenodd" clip-rule="evenodd" d="M71.7269 37.469L66.2598 46.6815L71.7269 56.0366L71.8602 52.292H76.8473C78.6741 52.4475 81.0343 51.3072 81.9144 49.6487L88.3283 38.4408C86.2081 40.4362 83.4879 40.9545 80.3676 40.9545H71.9269L71.7269 37.469Z" fill="white"/>
</g>
<path fill-rule="evenodd" clip-rule="evenodd" d="M59.5125 26.1059L49.0449 20.3011L54.6321 12.2547C58.3657 9.04132 62.9394 13.3561 65.0863 17.619L59.5125 26.1059Z" fill="white"/>
<path fill-rule="evenodd" clip-rule="evenodd" d="M66.2597 25.1083L77.354 25.199L83.2612 16.0901L79.7675 17.8005L77.3407 13.6283C76.5939 12.0345 74.4071 10.6093 72.4736 10.687L59.0991 10.7777C61.9527 11.5681 63.7395 13.5894 65.2596 16.2067L69.3533 23.2425L66.2597 25.1083Z" fill="white"/>
<mask id="mask4_4_6557" style="mask-type:luminance" maskUnits="userSpaceOnUse" x="39" y="23" width="23" height="20">
<path d="M39.4976 23.0353H61.4994V42.9375H39.4976V23.0353Z" fill="white"/>
</mask>
<g mask="url(#mask4_4_6557)">
<path fill-rule="evenodd" clip-rule="evenodd" d="M41.0309 25.6265L44.2712 27.9976L41.2176 33.4655C39.6974 35.9792 42.3243 38.4411 43.9911 39.2963C45.6313 40.1385 48.1915 40.2421 50.5784 40.2033L54.8721 33.6469L58.1123 35.2925L52.4852 25.5358L41.0309 25.6265Z" fill="white"/>
</g>
<path fill-rule="evenodd" clip-rule="evenodd" d="M41.5107 38.2987L48.4713 50.3229C49.8714 51.9944 52.5117 52.3961 55.2452 52.3313H62.5925V40.942L48.658 40.8513C46.4978 40.9679 43.6709 40.5403 41.5107 38.2987Z" fill="white"/>
</svg>
