<svg width="51" height="28" viewBox="0 0 51 28" fill="none" xmlns="http://www.w3.org/2000/svg">
<mask id="mask0_4_3142" style="mask-type:luminance" maskUnits="userSpaceOnUse" x="0" y="0" width="51" height="28">
<path d="M0.546875 0.776398H50.9022V27.049H0.546875V0.776398Z" fill="white"/>
</mask>
<g mask="url(#mask0_4_3142)">
<mask id="mask1_4_3142" style="mask-type:luminance" maskUnits="userSpaceOnUse" x="0" y="0" width="51" height="27">
<path d="M13.5926 0.776398H37.5149C44.721 0.776398 50.5606 6.6159 50.5606 13.8169C50.5606 21.0231 44.721 26.8626 37.5149 26.8626H13.5926C6.38638 26.8626 0.546875 21.0231 0.546875 13.8169C0.546875 6.6159 6.38638 0.776398 13.5926 0.776398Z" fill="white"/>
</mask>
<g mask="url(#mask1_4_3142)">
<path d="M0.546875 0.776398H50.5347V26.6918H0.546875V0.776398Z" fill="#5271FF"/>
</g>
</g>
<mask id="mask2_4_3142" style="mask-type:luminance" maskUnits="userSpaceOnUse" x="28" y="9" width="8" height="9">
<path d="M28.3726 9.82045H35.6202V17.7721H28.3726V9.82045Z" fill="white"/>
</mask>
<g mask="url(#mask2_4_3142)">
<path fill-rule="evenodd" clip-rule="evenodd" d="M29.2837 13.1389L33.3165 10.773L35.1232 14.1949C35.5632 16.069 33.1715 16.7575 31.2457 16.6436L29.2837 13.1389Z" fill="white"/>
</g>
<mask id="mask3_4_3142" style="mask-type:luminance" maskUnits="userSpaceOnUse" x="25" y="15" width="10" height="9">
<path d="M25.7222 15.1215H34.9991V23.0162H25.7222V15.1215Z" fill="white"/>
</mask>
<g mask="url(#mask3_4_3142)">
<path fill-rule="evenodd" clip-rule="evenodd" d="M28.3676 15.5874L26.2451 19.2681L28.3676 23.0058L28.4194 21.5097H30.3555C31.0648 21.5718 31.9811 21.1163 32.3228 20.4536L34.8128 15.9756C33.9897 16.7729 32.9336 16.9799 31.7222 16.9799H28.4453L28.3676 15.5874Z" fill="white"/>
</g>
<path fill-rule="evenodd" clip-rule="evenodd" d="M23.6254 11.0473L19.5615 8.72804L21.7306 5.51321C23.1802 4.22935 24.9558 5.95324 25.7893 7.65643L23.6254 11.0473Z" fill="white"/>
<path fill-rule="evenodd" clip-rule="evenodd" d="M26.2448 10.6487L30.552 10.6849L32.8453 7.04557L31.489 7.72892L30.5468 6.06197C30.2569 5.42521 29.4079 4.85576 28.6572 4.88682L23.4648 4.92306C24.5727 5.23885 25.2664 6.04644 25.8566 7.09216L27.4459 9.9032L26.2448 10.6487Z" fill="white"/>
<mask id="mask4_4_3142" style="mask-type:luminance" maskUnits="userSpaceOnUse" x="15" y="9" width="10" height="9">
<path d="M15.855 9.82045H24.3968V17.7721H15.855V9.82045Z" fill="white"/>
</mask>
<g mask="url(#mask4_4_3142)">
<path fill-rule="evenodd" clip-rule="evenodd" d="M16.4504 10.8558L17.7084 11.8032L16.5229 13.9879C15.9327 14.9922 16.9525 15.9758 17.5997 16.3174C18.2364 16.6539 19.2304 16.6954 20.157 16.6798L21.824 14.0603L23.082 14.7178L20.8973 10.8196L16.4504 10.8558Z" fill="white"/>
</g>
<path fill-rule="evenodd" clip-rule="evenodd" d="M16.6367 15.9188L19.339 20.7229C19.8826 21.3907 20.9076 21.5512 21.9689 21.5253H24.8213V16.9748L19.4115 16.9386C18.5729 16.9852 17.4754 16.8144 16.6367 15.9188Z" fill="white"/>
</svg>
