<svg width="17" height="14" viewBox="0 0 17 14" fill="none" xmlns="http://www.w3.org/2000/svg">
<path opacity="0.4" d="M11.468 1.16663H5.53216C2.95383 1.16663 1.41675 2.43246 1.41675 4.55579V9.43829C1.41675 11.5675 2.95383 12.8333 5.53216 12.8333H11.4609C14.0392 12.8333 15.5763 11.5675 15.5763 9.44413V4.55579C15.5834 2.43246 14.0463 1.16663 11.468 1.16663Z" fill="black"/>
<path d="M8.50001 8.69748C8.36543 8.69748 8.23084 8.65665 8.12459 8.56915L5.62418 6.50998C5.52538 6.42765 5.46997 6.31656 5.46997 6.20081C5.46997 6.08506 5.52538 5.97398 5.62418 5.89165C5.82959 5.72248 6.16959 5.72248 6.37501 5.89165L8.50001 7.64165L10.625 5.89165C10.8304 5.72248 11.1704 5.72248 11.3758 5.89165C11.5813 6.06081 11.5813 6.34081 11.3758 6.50998L8.87543 8.56915C8.76918 8.65665 8.63459 8.69748 8.50001 8.69748Z" fill="black"/>
</svg>
