<svg width="48" height="35" viewBox="0 0 48 35" fill="none" xmlns="http://www.w3.org/2000/svg">
<path d="M28.8801 27.7812L31.9201 29.9979L38.0001 25.5645M23.9801 31.8062C20.3401 31.8062 16.7201 31.1354 13.9601 29.7937C9.12008 27.4312 9.12008 23.5812 13.9601 21.2333C19.4601 18.55 28.4801 18.55 33.9801 21.2333M24.3201 15.852C24.1201 15.8375 23.8801 15.8375 23.6601 15.852C21.3645 15.7952 19.1894 15.0891 17.5953 13.8832C16.0013 12.6774 15.1136 11.0665 15.1201 9.39163C15.1169 8.5419 15.3438 7.70007 15.7877 6.9144C16.2316 6.12873 16.8838 5.41466 17.7069 4.81313C18.5299 4.21161 19.5078 3.73445 20.5843 3.409C21.6607 3.08356 22.8147 2.91624 23.9801 2.91663C28.8801 2.91663 32.8601 5.81871 32.8601 9.39163C32.8601 12.8916 29.0601 15.7354 24.3201 15.852Z" stroke="black" stroke-width="1.5" stroke-linecap="round" stroke-linejoin="round"/>
</svg>
