<svg width="16" height="16" viewBox="0 0 16 16" fill="none" xmlns="http://www.w3.org/2000/svg">
<path d="M14.3332 7.26665V2.73331C14.3332 1.73331 13.9065 1.33331 12.8465 1.33331H10.1532C9.09317 1.33331 8.6665 1.73331 8.6665 2.73331V7.26665C8.6665 8.26665 9.09317 8.66665 10.1532 8.66665H12.8465C13.9065 8.66665 14.3332 8.26665 14.3332 7.26665ZM7.33317 8.73331V13.2666C7.33317 14.2666 6.9065 14.6666 5.8465 14.6666H3.15317C2.09317 14.6666 1.6665 14.2666 1.6665 13.2666V8.73331C1.6665 7.73331 2.09317 7.33331 3.15317 7.33331H5.8465C6.9065 7.33331 7.33317 7.73331 7.33317 8.73331ZM14.3332 13.2666V11.4C14.3332 10.4 13.9065 9.99998 12.8465 9.99998H10.1532C9.09317 9.99998 8.6665 10.4 8.6665 11.4V13.2666C8.6665 14.2666 9.09317 14.6666 10.1532 14.6666H12.8465C13.9065 14.6666 14.3332 14.2666 14.3332 13.2666ZM7.33317 4.59998V2.73331C7.33317 1.73331 6.9065 1.33331 5.8465 1.33331H3.15317C2.09317 1.33331 1.6665 1.73331 1.6665 2.73331V4.59998C1.6665 5.59998 2.09317 5.99998 3.15317 5.99998H5.8465C6.9065 5.99998 7.33317 5.59998 7.33317 4.59998Z" fill="black"/>
</svg>
