<svg width="16" height="16" viewBox="0 0 16 16" fill="none" xmlns="http://www.w3.org/2000/svg">
<path d="M14.3334 7.26667V2.73334C14.3334 1.73334 13.9067 1.33334 12.8467 1.33334H10.1534C9.09341 1.33334 8.66675 1.73334 8.66675 2.73334V7.26667C8.66675 8.26667 9.09341 8.66667 10.1534 8.66667H12.8467C13.9067 8.66667 14.3334 8.26667 14.3334 7.26667ZM7.33341 8.73334V13.2667C7.33341 14.2667 6.90675 14.6667 5.84675 14.6667H3.15341C2.09341 14.6667 1.66675 14.2667 1.66675 13.2667V8.73334C1.66675 7.73334 2.09341 7.33334 3.15341 7.33334H5.84675C6.90675 7.33334 7.33341 7.73334 7.33341 8.73334ZM14.3334 13.2667V11.4C14.3334 10.4 13.9067 10 12.8467 10H10.1534C9.09341 10 8.66675 10.4 8.66675 11.4V13.2667C8.66675 14.2667 9.09341 14.6667 10.1534 14.6667H12.8467C13.9067 14.6667 14.3334 14.2667 14.3334 13.2667ZM7.33341 4.6V2.73334C7.33341 1.73334 6.90675 1.33334 5.84675 1.33334H3.15341C2.09341 1.33334 1.66675 1.73334 1.66675 2.73334V4.6C1.66675 5.6 2.09341 6 3.15341 6H5.84675C6.90675 6 7.33341 5.6 7.33341 4.6Z" fill="black"/>
</svg>
