<svg width="25" height="25" viewBox="0 0 25 25" fill="none" xmlns="http://www.w3.org/2000/svg">
<path opacity="0.4" d="M16.8645 2.08337H8.13533C4.34367 2.08337 2.08325 4.34379 2.08325 8.13546V16.8542C2.08325 20.6563 4.34367 22.9167 8.13533 22.9167H16.8541C20.6458 22.9167 22.9062 20.6563 22.9062 16.8646V8.13546C22.9166 4.34379 20.6562 2.08337 16.8645 2.08337Z" fill="black"/>
<path d="M12.4999 15.5313C12.302 15.5313 12.1041 15.4584 11.9478 15.3021L8.27072 11.625C8.12543 11.478 8.04395 11.2797 8.04395 11.073C8.04395 10.8663 8.12543 10.6679 8.27072 10.5209C8.5728 10.2188 9.0728 10.2188 9.37488 10.5209L12.4999 13.6459L15.6249 10.5209C15.927 10.2188 16.427 10.2188 16.7291 10.5209C17.0311 10.823 17.0311 11.323 16.7291 11.625L13.052 15.3021C12.8957 15.4584 12.6978 15.5313 12.4999 15.5313Z" fill="black"/>
</svg>
