<svg width="66" height="66" viewBox="0 0 66 66" fill="none" xmlns="http://www.w3.org/2000/svg">
<path opacity="0.4" d="M56.375 28.0225H48.4275C41.91 28.0225 36.6025 22.715 36.6025 16.1975V8.25C36.6025 6.7375 35.365 5.5 33.8525 5.5H22.1925C13.7225 5.5 6.875 11 6.875 20.8175V45.1825C6.875 55 13.7225 60.5 22.1925 60.5H43.8075C52.2775 60.5 59.125 55 59.125 45.1825V30.7725C59.125 29.26 57.8875 28.0225 56.375 28.0225Z" fill="black"/>
<path d="M43.45 6.07748C42.3225 4.94998 40.37 5.71998 40.37 7.28748V16.885C40.37 20.9 43.78 24.2275 47.9325 24.2275C50.545 24.255 54.175 24.255 57.2825 24.255C58.85 24.255 59.675 22.4125 58.575 21.3125C54.615 17.325 47.52 10.1475 43.45 6.07748ZM31.7075 34.2925L26.2075 28.7925C26.18 28.765 26.1525 28.765 26.1525 28.7375C25.9736 28.5692 25.7694 28.43 25.5475 28.325H25.4925C25.2725 28.2425 25.0525 28.215 24.8325 28.1875H24.6125C24.4475 28.1875 24.255 28.2425 24.09 28.2975C24.0075 28.325 23.9525 28.3525 23.8975 28.38C23.6775 28.49 23.4575 28.6 23.2925 28.7925L17.7925 34.2925C16.995 35.09 16.995 36.41 17.7925 37.2075C18.59 38.005 19.91 38.005 20.7075 37.2075L22.6875 35.2275V46.75C22.6875 47.8775 23.6225 48.8125 24.75 48.8125C25.8775 48.8125 26.8125 47.8775 26.8125 46.75V35.2275L28.7925 37.2075C29.205 37.62 29.7275 37.8125 30.25 37.8125C30.7725 37.8125 31.295 37.62 31.7075 37.2075C32.505 36.41 32.505 35.09 31.7075 34.2925Z" fill="black"/>
</svg>
