<svg width="44" height="44" viewBox="0 0 44 44" fill="none" xmlns="http://www.w3.org/2000/svg">
<path opacity="0.4" d="M37.5833 18.6816H32.2849C27.9399 18.6816 24.4016 15.1433 24.4016 10.7983V5.49996C24.4016 4.49163 23.5766 3.66663 22.5683 3.66663H14.7949C9.14825 3.66663 4.58325 7.33329 4.58325 13.8783V30.1216C4.58325 36.6666 9.14825 40.3333 14.7949 40.3333H29.2049C34.8516 40.3333 39.4166 36.6666 39.4166 30.1216V20.515C39.4166 19.5066 38.5916 18.6816 37.5833 18.6816Z" fill="black"/>
<path d="M28.9666 4.05169C28.215 3.30003 26.9133 3.81336 26.9133 4.85836V11.2567C26.9133 13.9334 29.1866 16.1517 31.955 16.1517C33.6966 16.17 36.1166 16.17 38.1883 16.17C39.2333 16.17 39.7833 14.9417 39.05 14.2084C36.41 11.55 31.68 6.76503 28.9666 4.05169ZM21.1383 22.8617L17.4716 19.195C17.4533 19.1767 17.435 19.1767 17.435 19.1584C17.3157 19.0462 17.1796 18.9534 17.0316 18.8834H16.995C16.8483 18.8284 16.7016 18.81 16.555 18.7917H16.4083C16.2983 18.7917 16.17 18.8284 16.06 18.865C16.005 18.8834 15.9683 18.9017 15.9316 18.92C15.785 18.9934 15.6383 19.0667 15.5283 19.195L11.8616 22.8617C11.33 23.3934 11.33 24.2734 11.8616 24.805C12.3933 25.3367 13.2733 25.3367 13.805 24.805L15.125 23.485V31.1667C15.125 31.9184 15.7483 32.5417 16.5 32.5417C17.2516 32.5417 17.875 31.9184 17.875 31.1667V23.485L19.195 24.805C19.47 25.08 19.8183 25.2084 20.1666 25.2084C20.515 25.2084 20.8633 25.08 21.1383 24.805C21.67 24.2734 21.67 23.3934 21.1383 22.8617Z" fill="black"/>
</svg>
