<svg width="8" height="8" viewBox="0 0 8 8" fill="none" xmlns="http://www.w3.org/2000/svg">
<g clip-path="url(#clip0_4_4123)">
<path opacity="0.4" d="M5.39675 0.666626H2.60341C1.39008 0.666626 0.666748 1.38996 0.666748 2.60329V5.39329C0.666748 6.60996 1.39008 7.33329 2.60341 7.33329H5.39341C6.60675 7.33329 7.33008 6.60996 7.33008 5.39663V2.60329C7.33341 1.38996 6.61008 0.666626 5.39675 0.666626Z" fill="black"/>
<path d="M4.00012 4.97002C3.93679 4.97002 3.87345 4.94669 3.82345 4.89669L2.64679 3.72002C2.60029 3.67298 2.57422 3.6095 2.57422 3.54336C2.57422 3.47721 2.60029 3.41374 2.64679 3.36669C2.74345 3.27002 2.90345 3.27002 3.00012 3.36669L4.00012 4.36669L5.00012 3.36669C5.09679 3.27002 5.25679 3.27002 5.35345 3.36669C5.45012 3.46336 5.45012 3.62336 5.35345 3.72002L4.17679 4.89669C4.12679 4.94669 4.06345 4.97002 4.00012 4.97002Z" fill="black"/>
</g>
<defs>
<clipPath id="clip0_4_4123">
<rect width="8" height="8" fill="white"/>
</clipPath>
</defs>
</svg>
