<svg width="58" height="28" viewBox="0 0 58 28" fill="none" xmlns="http://www.w3.org/2000/svg">
<path d="M1 15.0397L3.36897 13.9161C4.87013 13.2041 6.65317 13.4742 7.87616 14.5988V14.5988C9.42482 16.0228 11.8027 16.0348 13.3656 14.6264L15.0479 13.1104C15.3222 12.8632 15.6267 12.6517 15.9541 12.481L18.0609 11.3825C19.2943 10.7395 20.76 10.7212 22.009 11.3334L22.9498 11.7945C24.1644 12.3897 25.586 12.3897 26.8006 11.7945L29.1241 10.6557C29.5243 10.4596 29.8922 10.2035 30.215 9.89619L32.3373 7.87615C33.6335 6.64243 35.5503 6.32244 37.1769 7.06822L38.6171 7.72849C39.0926 7.94654 39.5253 8.24812 39.8944 8.6189L43.4698 12.2107C43.8173 12.5598 44.2212 12.8477 44.6646 13.0623L48.2443 14.7948C48.5803 14.9574 48.9358 15.0763 49.302 15.1487L52.3456 15.7502C53.044 15.8882 53.7655 15.8537 54.4475 15.6497L57 14.8863" stroke="#4CAF50" stroke-width="0.875" stroke-linecap="round" stroke-linejoin="round"/>
</svg>
