<svg width="53" height="28" viewBox="0 0 53 28" fill="none" xmlns="http://www.w3.org/2000/svg">
<path d="M0.918945 15.0397L3.04121 13.9425C4.42814 13.2254 6.11978 13.4892 7.22249 14.5946V14.5946C8.61216 15.9876 10.8653 15.9989 12.2689 14.62L13.7771 13.1384C14.0477 12.8727 14.3516 12.6433 14.6812 12.4559L16.2726 11.5514C17.5777 10.8096 19.172 10.7888 20.496 11.4962L20.7591 11.6367C22.0473 12.325 23.5941 12.325 24.8823 11.6367L26.6631 10.6853C27.0667 10.4697 27.434 10.192 27.7516 9.86252L29.4041 8.14786C30.7314 6.77074 32.7993 6.41539 34.5101 7.27045L35.3595 7.69497C35.84 7.9351 36.2721 8.26164 36.6343 8.65827L39.8454 12.1748C40.1858 12.5475 40.5882 12.8586 41.0346 13.0941L44.1904 14.759C44.5434 14.9453 44.9203 15.0823 45.3105 15.1664L47.8413 15.7116C48.5975 15.8745 49.3834 15.834 50.1189 15.5942L52.2901 14.8863" stroke="#4CAF50" stroke-width="0.875" stroke-linecap="round" stroke-linejoin="round"/>
</svg>
