<svg width="58" height="28" viewBox="0 0 58 28" fill="none" xmlns="http://www.w3.org/2000/svg">
<path d="M1.05615 15.0397L3.42512 13.9161C4.92629 13.2041 6.70932 13.4742 7.93231 14.5988V14.5988C9.48097 16.0228 11.8589 16.0348 13.4218 14.6264L15.1041 13.1104C15.3784 12.8632 15.6828 12.6517 16.0102 12.481L18.1171 11.3825C19.3505 10.7395 20.8161 10.7212 22.0651 11.3334L23.006 11.7945C24.2206 12.3897 25.6422 12.3897 26.8568 11.7945L29.1802 10.6557C29.5804 10.4596 29.9483 10.2035 30.2711 9.89619L32.3935 7.87615C33.6896 6.64243 35.6065 6.32244 37.2331 7.06822L38.6732 7.72849C39.1488 7.94654 39.5814 8.24812 39.9505 8.6189L43.526 12.2107C43.8735 12.5598 44.2774 12.8477 44.7207 13.0623L48.3005 14.7948C48.6365 14.9574 48.992 15.0763 49.3582 15.1487L52.4018 15.7502C53.1001 15.8882 53.8216 15.8537 54.5037 15.6497L57.0562 14.8863" stroke="#4CAF50" stroke-width="0.875" stroke-linecap="round" stroke-linejoin="round"/>
</svg>
