<svg width="53" height="28" viewBox="0 0 53 28" fill="none" xmlns="http://www.w3.org/2000/svg">
<path d="M0.685547 15.0397L2.80781 13.9425C4.19474 13.2254 5.88638 13.4892 6.98909 14.5946V14.5946C8.37876 15.9876 10.6319 15.9989 12.0355 14.62L13.5437 13.1384C13.8143 12.8727 14.1182 12.6433 14.4479 12.4559L16.0392 11.5514C17.3443 10.8096 18.9386 10.7888 20.2626 11.4962L20.5257 11.6367C21.8139 12.325 23.3607 12.325 24.6489 11.6367L26.4297 10.6853C26.8333 10.4697 27.2006 10.192 27.5182 9.86252L29.1707 8.14786C30.498 6.77074 32.5659 6.41539 34.2767 7.27045L35.1261 7.69497C35.6066 7.9351 36.0387 8.26164 36.4009 8.65827L39.612 12.1748C39.9524 12.5475 40.3548 12.8586 40.8012 13.0941L43.957 14.759C44.31 14.9453 44.6869 15.0823 45.0771 15.1664L47.6079 15.7116C48.3641 15.8745 49.15 15.834 49.8855 15.5942L52.0567 14.8863" stroke="#4CAF50" stroke-width="0.875" stroke-linecap="round" stroke-linejoin="round"/>
</svg>
