<svg width="58" height="28" viewBox="0 0 58 28" fill="none" xmlns="http://www.w3.org/2000/svg">
<path d="M1.13965 15.0397L3.50862 13.9161C5.00978 13.2041 6.79282 13.4742 8.01581 14.5988V14.5988C9.56447 16.0228 11.9424 16.0348 13.5053 14.6264L15.1876 13.1104C15.4619 12.8632 15.7663 12.6517 16.0937 12.481L18.2006 11.3825C19.434 10.7395 20.8996 10.7212 22.1486 11.3334L23.0895 11.7945C24.3041 12.3897 25.7257 12.3897 26.9403 11.7945L29.2637 10.6557C29.6639 10.4596 30.0318 10.2035 30.3546 9.89619L32.477 7.87615C33.7731 6.64243 35.69 6.32244 37.3166 7.06822L38.7567 7.72849C39.2323 7.94654 39.6649 8.24812 40.034 8.6189L43.6095 12.2107C43.957 12.5598 44.3609 12.8477 44.8042 13.0623L48.384 14.7948C48.72 14.9574 49.0755 15.0763 49.4417 15.1487L52.4853 15.7502C53.1836 15.8882 53.9051 15.8537 54.5872 15.6497L57.1397 14.8863" stroke="#4CAF50" stroke-width="0.875" stroke-linecap="round" stroke-linejoin="round"/>
</svg>
