<svg width="58" height="28" viewBox="0 0 58 28" fill="none" xmlns="http://www.w3.org/2000/svg">
<path d="M1.02783 15.0397L3.3968 13.9161C4.89796 13.2041 6.681 13.4742 7.90399 14.5988V14.5988C9.45265 16.0228 11.8305 16.0348 13.3934 14.6264L15.0758 13.1104C15.35 12.8632 15.6545 12.6517 15.9819 12.481L18.0888 11.3825C19.3221 10.7395 20.7878 10.7212 22.0368 11.3334L22.9777 11.7945C24.1922 12.3897 25.6139 12.3897 26.8284 11.7945L29.1519 10.6557C29.5521 10.4596 29.92 10.2035 30.2428 9.89619L32.3651 7.87615C33.6613 6.64243 35.5781 6.32244 37.2048 7.06822L38.6449 7.72849C39.1205 7.94654 39.5531 8.24812 39.9222 8.6189L43.4977 12.2107C43.8452 12.5598 44.2491 12.8477 44.6924 13.0623L48.2722 14.7948C48.6082 14.9574 48.9636 15.0763 49.3299 15.1487L52.3735 15.7502C53.0718 15.8882 53.7933 15.8537 54.4753 15.6497L57.0278 14.8863" stroke="#4CAF50" stroke-width="0.875" stroke-linecap="round" stroke-linejoin="round"/>
</svg>
