<svg width="58" height="28" viewBox="0 0 58 28" fill="none" xmlns="http://www.w3.org/2000/svg">
<path d="M1.11182 15.0397L3.48079 13.9161C4.98195 13.2041 6.76498 13.4742 7.98798 14.5988V14.5988C9.53664 16.0228 11.9145 16.0348 13.4774 14.6264L15.1597 13.1104C15.434 12.8632 15.7385 12.6517 16.0659 12.481L18.1728 11.3825C19.4061 10.7395 20.8718 10.7212 22.1208 11.3334L23.0616 11.7945C24.2762 12.3897 25.6978 12.3897 26.9124 11.7945L29.2359 10.6557C29.6361 10.4596 30.004 10.2035 30.3268 9.89619L32.4491 7.87615C33.7453 6.64243 35.6621 6.32244 37.2888 7.06822L38.7289 7.72849C39.2045 7.94654 39.6371 8.24812 40.0062 8.6189L43.5817 12.2107C43.9291 12.5598 44.3331 12.8477 44.7764 13.0623L48.3561 14.7948C48.6922 14.9574 49.0476 15.0763 49.4138 15.1487L52.4574 15.7502C53.1558 15.8882 53.8773 15.8537 54.5593 15.6497L57.1118 14.8863" stroke="#4CAF50" stroke-width="0.875" stroke-linecap="round" stroke-linejoin="round"/>
</svg>
