<svg width="58" height="28" viewBox="0 0 58 28" fill="none" xmlns="http://www.w3.org/2000/svg">
<path d="M1.08398 15.0397L3.45295 13.9161C4.95412 13.2041 6.73715 13.4742 7.96014 14.5988V14.5988C9.5088 16.0228 11.8867 16.0348 13.4496 14.6264L15.1319 13.1104C15.4062 12.8632 15.7107 12.6517 16.0381 12.481L18.1449 11.3825C19.3783 10.7395 20.844 10.7212 22.093 11.3334L23.0338 11.7945C24.2484 12.3897 25.67 12.3897 26.8846 11.7945L29.2081 10.6557C29.6083 10.4596 29.9761 10.2035 30.299 9.89619L32.4213 7.87615C33.7175 6.64243 35.6343 6.32244 37.2609 7.06822L38.7011 7.72849C39.1766 7.94654 39.6092 8.24812 39.9783 8.6189L43.5538 12.2107C43.9013 12.5598 44.3052 12.8477 44.7486 13.0623L48.3283 14.7948C48.6643 14.9574 49.0198 15.0763 49.386 15.1487L52.4296 15.7502C53.128 15.8882 53.8495 15.8537 54.5315 15.6497L57.084 14.8863" stroke="#4CAF50" stroke-width="0.875" stroke-linecap="round" stroke-linejoin="round"/>
</svg>
