<svg width="235" height="64" viewBox="0 0 235 64" fill="none" xmlns="http://www.w3.org/2000/svg">
<path d="M11.9521 49.2565C13.6355 48.7539 14.6455 47.2461 15.9922 46.0733C18.8539 43.8953 21.5474 41.2146 24.2408 38.8691C25.0825 38.1989 25.9241 38.0314 26.7658 38.534C27.6075 39.2042 27.2709 40.0419 26.7658 40.8796C22.5574 47.0785 18.5173 53.445 13.9721 59.644C11.9521 62.4921 9.59535 62.8272 6.06025 61.822C4.0402 61.1518 2.18848 58.9738 2.18848 55.9581C2.18848 40.0419 2.18848 24.2932 2.18848 8.37696C2.18848 5.02617 4.71355 2.178 8.58532 2.01046C12.7938 1.84292 14.9822 4.35601 17.1706 7.03664C21.379 12.0628 25.5875 17.089 29.7959 22.1152C37.0345 30.8272 44.273 39.3717 51.5115 48.0838C51.8482 48.5864 52.1849 49.2565 52.6899 49.089C53.5316 48.9215 53.0266 48.0838 53.0266 47.5811C53.0266 37.1937 53.0266 26.8063 53.0266 16.4188C53.0266 15.9162 53.3633 15.2461 52.6899 14.911C52.5216 14.4084 52.1849 15.0785 51.8482 15.4136C48.1448 18.5968 44.6097 21.6126 40.9062 24.7958C40.7379 24.9633 40.4012 25.2984 40.2329 25.466C39.5595 25.9686 38.7178 25.801 38.2128 25.2984C37.5395 24.7958 37.7078 24.1256 38.2128 23.4555C39.8962 20.7749 41.5796 18.2618 43.4313 15.5811C46.1247 11.8953 48.4815 7.87434 51.1749 4.18847C53.1949 1.34031 57.4034 1.17277 59.5918 2.51308C61.7802 3.8534 62.7902 5.69633 62.7902 8.37696C62.7902 23.9581 62.7902 39.7068 62.7902 55.2879C62.7902 59.3089 60.0968 61.6544 56.0567 61.9895C52.3532 62.3246 50.1648 60.3141 48.1448 57.6335C46.2931 55.2879 44.4413 53.1099 42.5896 50.9319C40.5696 48.4188 38.3812 46.0733 36.3611 43.3927C34.6777 41.2146 32.826 39.2042 30.9743 37.0262C28.4492 34.0105 26.0925 30.9948 23.3991 27.979C21.7157 25.9686 20.0323 24.1256 18.5173 22.1152C16.4972 19.6021 14.3088 17.2565 12.2888 14.911C12.1204 15.0785 12.1204 14.911 11.9521 15.0785C11.6154 15.4136 11.7837 15.7487 11.7837 16.0838C11.7837 26.8063 11.7837 37.5288 11.7837 48.0838C11.7837 48.4188 11.6154 48.9215 11.9521 49.2565Z" fill="black"/>
<path d="M111.777 39.0366C111.777 37.6963 111.777 36.5236 111.608 35.1832C111.44 34.3455 111.608 33.5079 111.44 32.8377C111.44 28.8168 111.44 24.7958 111.44 20.6073C111.44 18.7644 111.44 16.9215 111.44 15.0785C111.44 14.0733 111.608 13.7382 112.618 13.7382C118.51 13.9058 117.332 12.9005 117.332 18.2618C117.332 28.1466 117.332 38.199 117.332 48.0838C117.332 49.5916 116.995 50.2618 115.312 50.0942C114.47 49.9267 113.628 50.0942 112.787 50.0942C111.103 50.0942 109.757 49.4241 108.747 48.0838C103.36 39.8743 98.1412 31.6649 92.7544 23.4555C92.7544 23.288 92.7544 23.1204 92.2494 23.288C92.2494 24.1257 92.2494 24.9633 92.4177 25.6335C92.586 26.3037 92.4177 26.9738 92.586 27.644C92.586 29.3194 92.586 30.9948 92.7544 32.6702C93.0911 33.5079 92.7544 34.3455 92.9227 35.0157C92.9227 39.3717 92.7544 43.7277 92.9227 48.0838C92.9227 49.5916 92.4177 50.0942 90.9027 50.0942C86.8626 49.9267 86.8625 50.0942 86.8625 46.0733C86.8625 35.8534 86.8625 25.6335 86.8625 15.4136C86.8625 14.0733 87.1992 13.5707 88.5459 13.7382C89.556 13.9058 90.7343 13.7382 91.7444 13.9058C93.2594 14.0733 94.4378 14.7435 95.2795 16.0838C99.1512 21.9476 102.855 27.644 106.726 33.5079C108.241 35.6859 109.588 38.0314 111.103 40.2094C111.272 40.5445 111.44 40.5445 111.777 40.377C112.113 40.0419 111.945 39.5393 111.777 39.0366Z" fill="black"/>
<path d="M208.066 19.6021C205.541 19.4346 203.689 17.4241 203.521 15.0785C203.521 14.2408 203.689 13.7382 204.699 13.7382C210.254 13.9058 215.81 13.4031 221.196 13.9058C226.415 14.5759 230.287 17.7592 230.96 23.7906C231.128 24.7958 231.128 25.6335 230.96 26.6387C230.118 32.3351 226.92 34.8482 222.038 36.1885C224.058 38.7016 225.91 41.2147 227.93 43.7277C229.277 45.4031 230.623 47.0785 231.802 48.7539C232.307 49.4241 232.307 49.9267 231.297 49.9267C229.782 49.9267 228.267 50.0942 226.752 49.9267C225.068 49.7592 224.058 48.4188 223.048 47.2461C220.355 43.8953 217.83 40.5445 215.305 37.0262C214.968 36.5236 214.631 36.356 213.958 36.356C209.413 36.1885 209.413 36.1885 209.413 40.5445C209.413 43.0576 209.413 45.7382 209.413 48.2513C209.413 49.4241 208.908 49.7592 207.898 49.9267C203.353 50.0942 203.353 50.0942 203.353 45.5707C203.353 41.3822 203.353 37.1937 203.353 33.0052C203.353 31.6649 203.689 31.1623 205.204 31.1623C209.581 31.3298 213.958 31.1623 218.335 31.1623C221.701 31.1623 223.89 29.3194 224.731 26.1361C224.9 25.466 224.9 24.7958 224.731 24.1256C224.731 21.6126 221.87 19.6021 219.345 19.4346C216.146 19.0995 213.116 19.4346 209.918 19.267C209.413 19.6021 208.739 19.7696 208.066 19.6021Z" fill="black"/>
<path d="M178.775 13.9057C182.479 13.9057 182.479 13.9057 183.825 17.4241C187.865 27.644 191.906 38.0314 195.946 48.2513C196.619 50.0942 196.619 50.2618 194.599 50.2618C193.926 50.2618 193.084 50.0942 192.411 50.2618C190.559 50.5968 189.886 49.5916 189.381 48.2513C187.865 43.3927 185.677 38.7016 183.994 33.8429C182.479 29.822 180.964 25.801 179.449 21.7801C179.28 21.445 179.112 20.9424 178.607 20.9424C178.102 20.9424 178.102 21.445 178.102 21.7801C174.735 30.4921 171.368 39.3717 168.17 48.2513C167.665 49.7591 166.992 50.5968 165.308 50.2618C164.298 50.0942 163.456 50.2618 162.446 50.2618C161.268 50.2618 161.1 49.9267 161.436 48.7539C163.12 44.5654 164.971 40.377 166.487 36.1885C168.675 30.3246 171.032 24.7958 173.052 18.9319C173.557 17.5916 174.23 16.2513 174.567 14.911C174.735 14.0733 175.408 14.0733 175.913 14.0733C176.923 13.7382 177.765 13.9057 178.775 13.9057Z" fill="black"/>
<path d="M128.442 29.1518C128.779 28.4817 129.452 28.8167 129.957 28.8167C136.354 28.8167 142.751 28.8167 149.148 28.8167C150.494 28.8167 150.999 29.3194 150.999 30.6597C150.999 35.1832 151.504 34.5131 147.128 34.5131C143.424 34.5131 139.721 34.5131 136.017 34.5131C134.839 34.5131 134.334 34.8482 134.502 36.0209C134.502 38.3665 134.502 40.712 134.502 43.0576C134.502 43.3927 134.165 43.8953 134.839 44.0628C135.344 44.3979 136.017 44.2304 136.522 44.2304C141.572 44.2304 146.791 44.0628 151.841 44.3979C152.851 45.9057 152.178 47.7487 152.346 49.4241C152.346 50.0942 151.673 50.0942 151.168 50.0942C143.929 50.0942 136.522 50.0942 129.284 50.0942C128.779 50.0942 128.779 49.7591 128.779 49.5916C128.274 42.7225 128.274 35.8534 128.442 29.1518Z" fill="black"/>
<path d="M128.442 14.0733C128.947 13.9058 129.62 13.9058 130.125 13.9058C136.859 13.9058 143.424 13.9058 150.158 13.9058C151.841 13.9058 152.346 14.4084 152.178 15.9162C152.009 17.089 152.514 18.4293 151.673 19.6021C145.276 19.7696 139.047 19.7696 132.65 19.6021C130.294 19.267 128.779 18.0942 128.442 15.7487C128.274 15.0785 128.105 14.5759 128.442 14.0733Z" fill="black"/>
</svg>
