<svg width="10" height="10" viewBox="0 0 10 10" fill="none" xmlns="http://www.w3.org/2000/svg">
<path d="M6.67269 1.59175L2.51839 5.74601L2.51839 5.74602C2.12307 6.14133 1.9254 6.33899 1.76834 6.56419C1.62893 6.76408 1.51354 6.97969 1.42456 7.20656C1.3243 7.46216 1.26948 7.73627 1.15983 8.28448L0.980469 9.18131L1.87731 9.00194C2.42552 8.8923 2.69962 8.83748 2.95522 8.73722C3.18209 8.64824 3.3977 8.53285 3.59759 8.39344C3.82279 8.23638 4.02044 8.03872 4.41576 7.6434L8.57005 3.48912C9.09398 2.96518 9.09399 2.11572 8.57006 1.59177C8.04613 1.06782 7.19664 1.06781 6.67269 1.59175Z" stroke="#22272F" stroke-width="0.776204" stroke-linecap="round" stroke-linejoin="round"/>
</svg>
